<svg xmlns="http://www.w3.org/2000/svg" viewBox="0 0 120 140" fill="none" aria-hidden="true">
  <defs>
    <linearGradient id="nvkShield" x1="20" y1="8" x2="100" y2="132" gradientUnits="userSpaceOnUse">
      <stop offset="0%" stop-color="#4da3e8"/>
      <stop offset="45%" stop-color="#0067c0"/>
      <stop offset="100%" stop-color="#004f96"/>
    </linearGradient>
    <linearGradient id="nvkShine" x1="60" y1="16" x2="60" y2="90" gradientUnits="userSpaceOnUse">
      <stop offset="0%" stop-color="#ffffff" stop-opacity="0.45"/>
      <stop offset="100%" stop-color="#ffffff" stop-opacity="0"/>
    </linearGradient>
    <filter id="nvkGlow" x="-20%" y="-20%" width="140%" height="140%">
      <feDropShadow dx="0" dy="4" stdDeviation="6" flood-color="#004f96" flood-opacity="0.35"/>
    </filter>
  </defs>
  <g filter="url(#nvkGlow)">
    <path class="nvk-shield-body" fill="url(#nvkShield)" d="M60 8 22 24v38c0 28 18 52 38 66 20-14 38-38 38-66V24L60 8Z"/>
    <path fill="url(#nvkShine)" d="M60 8 22 24v38c0 28 18 52 38 66 20-14 38-38 38-66V24L60 8Z" opacity="0.55"/>
    <path fill="none" stroke="rgba(255,255,255,0.42)" stroke-width="1.8" d="M60 22 34 34v26c0 18 12 34 26 44 14-10 26-26 26-44V34L60 22Z"/>
    <path class="nvk-trend-line" stroke="#fff" stroke-width="4.5" stroke-linecap="round" stroke-linejoin="round" fill="none" d="M34 78 48 92 68 68 88 52"/>
  </g>
</svg>
